<?xml version="1.0" encoding="UTF-8" standalone="no"?>
<!-- Created with Inkscape (http://www.inkscape.org/) -->

<svg
   xmlns:dc="http://purl.org/dc/elements/1.1/"
   xmlns:cc="http://creativecommons.org/ns#"
   xmlns:rdf="http://www.w3.org/1999/02/22-rdf-syntax-ns#"
   xmlns:svg="http://www.w3.org/2000/svg"
   xmlns="http://www.w3.org/2000/svg"
   xmlns:sodipodi="http://sodipodi.sourceforge.net/DTD/sodipodi-0.dtd"
   xmlns:inkscape="http://www.inkscape.org/namespaces/inkscape"
   width="403.17581"
   height="145.24481"
   id="svg3152"
   version="1.1"
   inkscape:version="0.48.3.1 r9886"
   sodipodi:docname="logo_mobile.svg">
  <defs
     id="defs3154" />
  <sodipodi:namedview
     id="base"
     pagecolor="#ffffff"
     bordercolor="#666666"
     borderopacity="1.0"
     inkscape:pageopacity="0.0"
     inkscape:pageshadow="2"
     inkscape:zoom="0.98994949"
     inkscape:cx="253.26738"
     inkscape:cy="208.93657"
     inkscape:document-units="px"
     inkscape:current-layer="layer1"
     showgrid="false"
     fit-margin-top="0"
     fit-margin-left="0"
     fit-margin-right="0"
     fit-margin-bottom="0"
     inkscape:window-width="1856"
     inkscape:window-height="1058"
     inkscape:window-x="56"
     inkscape:window-y="-8"
     inkscape:window-maximized="1" />
  <metadata
     id="metadata3157">
    <rdf:RDF>
      <cc:Work
         rdf:about="">
        <dc:format>image/svg+xml</dc:format>
        <dc:type
           rdf:resource="http://purl.org/dc/dcmitype/StillImage" />
        <dc:title />
      </cc:Work>
    </rdf:RDF>
  </metadata>
  <g
     inkscape:label="Layer 1"
     inkscape:groupmode="layer"
     id="layer1"
     transform="translate(-0.35750507,-0.29922383)">
    <g
       id="g3113"
       transform="matrix(1.0122026,0,0,1.0122026,-491.06404,-423.45476)"
       inkscape:export-xdpi="90"
       inkscape:export-ydpi="90">
      <g
         style="font-size:58.6939888px;font-style:normal;font-weight:normal;line-height:125%;letter-spacing:0px;word-spacing:0px;fill:#0088aa;fill-opacity:1;stroke:none;font-family:Sans"
         id="text2985-1-8-5">
        <path
           d="m 510.17705,528.55493 0,-55.20903 10.51218,0 0,20.0213 c 2.99583,-4.19949 6.96798,-6.29925 11.91649,-6.29929 0.0267,4e-5 0.0535,4e-5 0.0802,0 2.62134,4e-5 4.96183,0.50826 7.0215,1.52467 2.05961,1.01648 3.80495,2.45422 5.23603,4.3132 1.43101,1.85906 2.51433,4.05913 3.24995,6.60021 0.73555,2.54114 1.10334,5.34974 1.10338,8.4258 -4e-5,3.39708 -0.4347,6.43973 -1.30399,9.12795 -0.86937,2.68824 -2.07305,4.96186 -3.61106,6.82088 -1.53807,1.85903 -3.39041,3.28339 -5.55701,4.27308 -2.16666,0.9897 -4.50716,1.48455 -7.0215,1.48455 -5.02875,0 -8.78692,-2.00614 -11.27452,-6.01843 l -0.0802,4.93511 z M 520.288,509.33609 c -10e-6,3.45058 0.86263,6.2458 2.58793,8.38567 1.72526,2.1399 3.87183,3.20984 6.43971,3.20983 2.67484,10e-6 4.86822,-1.1368 6.58015,-3.41044 1.71188,-2.27362 2.56783,-5.22933 2.56786,-8.86715 -3e-5,-8.31877 -3.07611,-12.47817 -9.22825,-12.4782 -5.96495,3e-5 -8.94741,4.38679 -8.9474,13.16029 z"
           style="font-size:82.17158508px;font-variant:normal;font-stretch:normal;text-align:start;line-height:125%;writing-mode:lr-tb;text-anchor:start;fill:#0088aa;font-family:Coolvetica Rg;-inkscape-font-specification:Coolvetica Rg"
           id="path2997" />
      </g>
      <g
         transform="translate(555.78593,-161.22035)"
         id="g4116">
        <path
           id="path3806"
           d="m 11.219554,619.07146 0,92.16168 c 0,6.69722 -5.4292225,12.12645 -12.12644727,12.12645 l -53.35692573,0 c -6.697221,0 -12.126447,-5.42923 -12.126447,-12.12645 l 0,-92.16168 c 22.199196,0 69.3123253,0 77.60982,0 z m -67.908478,7.27562 0,72.7593 58.207442,0 0,-72.7593 z m 29.103721,77.61012 c -4.018458,0 -7.275933,3.25748 -7.275933,7.27594 0,4.01815 3.257475,7.27593 7.275933,7.27593 4.018458,0 7.275931,-3.25778 7.275931,-7.27593 0,-4.01846 -3.257473,-7.27594 -7.275931,-7.27594 z"
           inkscape:connector-curvature="0"
           style="fill:#000000;fill-opacity:1;stroke-width:0.2;stroke-linejoin:round"
           sodipodi:nodetypes="csssscccccccsssss" />
        <path
           id="path3817-5"
           d="m -0.50765502,580.03726 c 3.56981182,-0.82411 7.13167052,1.40145 7.95577132,4.97126 l 3.7306967,16.15915 -77.565564,17.90731 -3.730482,-16.15895 c -0.824116,-3.56981 1.401654,-7.13188 4.971258,-7.95598 z m -64.88466898,28.596 1.49215,6.46383 12.428463,-19.88986 -6.463622,1.49237 z m 11.187687,4.22529 6.463623,-1.49215 12.428469,-19.88986 -6.463629,1.49237 z m 16.159159,-3.73049 6.463624,-1.49237 12.428462,-19.88964 -6.463622,1.49215 z m 16.159161,-3.73071 6.463628,-1.49234 12.4284636,-19.88965 -6.4636288,1.49215 z m 16.1589514,-3.73068 6.4636289,-1.49216 4.9714653,-7.95598 -1.4921563,-6.46363 z M -66.386751,619.0754 z"
           inkscape:connector-curvature="0"
           style="fill:#000000;fill-opacity:1;stroke-width:0.2;stroke-linejoin:round"
           sodipodi:nodetypes="scccsssccccccccccccccccccccccccccc" />
      </g>
      <g
         style="font-size:58.6939888px;font-style:normal;font-weight:normal;line-height:125%;letter-spacing:0px;word-spacing:0px;fill:#ffffff;fill-opacity:1;stroke:#ffffff;stroke-width:3.95177794;stroke-linecap:butt;stroke-miterlimit:4;font-family:Sans"
         id="text2985-1-0-2-7-1-7">
        <path
           d="m 551.78641,508.2823 c 0,-3.18306 0.47479,-6.08527 1.42436,-8.70666 0.94957,-2.62133 2.33381,-4.86152 4.15272,-6.72058 1.81889,-1.85898 3.9989,-3.29672 6.54002,-4.3132 2.5411,-1.01641 5.42994,-1.52463 8.66653,-1.52467 3.18306,4e-5 6.03178,0.50826 8.54617,1.52467 2.51433,1.01648 4.6609,2.44084 6.43972,4.27308 1.77874,1.83231 3.1496,4.05913 4.11259,6.68046 0.9629,2.62138 1.44438,5.55035 1.44442,8.7869 -4e-5,3.23659 -0.48152,6.15887 -1.44442,8.76684 -0.96299,2.60799 -2.33385,4.8415 -4.11259,6.70051 -1.77882,1.85903 -3.93876,3.29677 -6.47984,4.31321 -2.54114,1.01644 -5.37649,1.52467 -8.50605,1.52467 -3.29009,0 -6.22574,-0.5216 -8.80696,-1.56479 -2.58125,-1.0432 -4.76125,-2.4943 -6.54002,-4.35333 -1.77879,-1.85902 -3.12959,-4.1059 -4.05241,-6.74064 -0.92283,-2.63472 -1.38424,-5.51687 -1.38424,-8.64647 z m 10.99366,0 c -10e-6,8.21182 3.26331,12.31772 9.78997,12.31771 6.52662,10e-6 9.78995,-4.10589 9.78998,-12.31771 -3e-5,-8.15829 -3.26336,-12.23744 -9.78998,-12.23747 -6.52666,3e-5 -9.78998,4.07918 -9.78997,12.23747 z"
           style="font-size:82.17158508px;font-variant:normal;font-stretch:normal;text-align:start;line-height:125%;writing-mode:lr-tb;text-anchor:start;fill:#ffffff;stroke:#ffffff;font-family:Coolvetica Rg;-inkscape-font-specification:Coolvetica Rg"
           id="path3000" />
      </g>
      <g
         transform="translate(555.78593,-161.22035)"
         style="fill:#333333"
         id="g4120">
        <g
           style="font-size:58.6939888px;font-style:normal;font-weight:normal;line-height:125%;letter-spacing:0px;word-spacing:0px;fill:#333333;fill-opacity:1;stroke:none;font-family:Sans"
           id="text2985-1-0-2-7">
          <path
             d="m 40.024833,669.60877 c -10e-7,-3.18305 0.474785,-6.08527 1.424361,-8.70665 0.94957,-2.62133 2.333807,-4.86152 4.152714,-6.72058 1.818894,-1.85899 3.9989,-3.29672 6.540024,-4.3132 2.541098,-1.01641 5.429939,-1.52463 8.666534,-1.52467 3.183054,4e-5 6.031773,0.50826 8.546166,1.52467 2.514332,1.01648 4.660902,2.44084 6.439717,4.27308 1.77874,1.83231 3.149603,4.05912 4.112591,6.68045 0.962906,2.62139 1.44438,5.55035 1.444423,8.7869 -4.3e-5,3.2366 -0.481517,6.15888 -1.444423,8.76685 -0.962988,2.60799 -2.333851,4.84149 -4.112591,6.70051 -1.778815,1.85903 -3.938759,3.29676 -6.47984,4.31321 -2.541141,1.01644 -5.376486,1.52466 -8.506043,1.52467 -3.290092,-10e-6 -6.225743,-0.5216 -8.806964,-1.5648 -2.581247,-1.04319 -4.761253,-2.4943 -6.540024,-4.35332 -1.778784,-1.85902 -3.129585,-4.1059 -4.052407,-6.74064 -0.922827,-2.63472 -1.384239,-5.51688 -1.384238,-8.64648 z m 10.993659,0 c -1.2e-5,8.21183 3.263309,12.31773 9.789974,12.31772 6.526621,1e-5 9.789943,-4.10589 9.789974,-12.31772 -3.1e-5,-8.15828 -3.263353,-12.23743 -9.789974,-12.23746 -6.526665,3e-5 -9.789986,4.07918 -9.789974,12.23746 z"
             style="font-size:82.17158508px;font-variant:normal;font-stretch:normal;text-align:start;line-height:125%;writing-mode:lr-tb;text-anchor:start;fill:#333333;font-family:Coolvetica Rg;-inkscape-font-specification:Coolvetica Rg"
             id="path3003" />
          <path
             d="m 84.72168,674.62413 0,-36.15068 10.512185,0 0,10.91341 22.348425,0 0,7.58322 -22.348425,0 0,16.57073 c -1.3e-5,2.56788 0.481461,4.55396 1.444422,5.95825 0.962934,1.4043 2.541097,2.10645 4.734493,2.10645 2.13987,0 3.71803,-0.68208 4.7345,-2.04627 1.01642,-1.36416 1.52464,-3.30343 1.52467,-5.81781 l 0,-10.55231 9.91034,0 0,11.51526 c -4e-5,2.13989 -0.31433,4.17947 -0.94289,6.11873 -0.62862,1.93928 -1.61163,3.66456 -2.94903,5.17585 -1.33745,1.51129 -3.03599,2.70829 -5.0956,3.59099 -2.05966,0.8827 -4.50715,1.32405 -7.34248,1.32406 -2.969105,-10e-6 -5.490154,-0.44136 -7.563155,-1.32406 -2.073022,-0.8827 -3.784929,-2.06632 -5.135724,-3.55087 -1.350807,-1.48454 -2.327128,-3.20982 -2.928967,-5.17585 -0.601845,-1.96601 -0.902766,-4.0457 -0.902764,-6.2391 z"
             style="font-size:82.17158508px;font-variant:normal;font-stretch:normal;text-align:start;line-height:125%;writing-mode:lr-tb;text-anchor:start;fill:#333333;font-family:Coolvetica Rg;-inkscape-font-specification:Coolvetica Rg"
             id="path3005" />
          <path
             d="m 121.47421,689.83069 0,-55.20904 10.67267,0 0,55.20904 z"
             style="font-size:82.17158508px;font-variant:normal;font-stretch:normal;text-align:start;line-height:125%;writing-mode:lr-tb;text-anchor:start;fill:#333333;font-family:Coolvetica Rg;-inkscape-font-specification:Coolvetica Rg"
             id="path3007" />
          <path
             d="m 135.51721,668.88656 c 0,-3.12955 0.43466,-5.95152 1.30399,-8.46592 0.86932,-2.51433 2.13988,-4.68096 3.81167,-6.4999 1.67178,-1.81886 3.71135,-3.2031 6.11873,-4.15271 2.40736,-0.94953 5.17583,-1.42432 8.30543,-1.42436 6.23239,4e-5 10.95351,1.99949 14.16337,5.99836 3.20979,3.99894 4.8147,10.02405 4.81474,18.07534 l -27.84526,0 c 0.16048,3.0761 1.04987,5.51691 2.66817,7.32242 1.61827,1.80554 3.7381,2.7083 6.35947,2.7083 1.76539,0 3.3168,-0.40123 4.65425,-1.20369 1.33741,-0.80245 2.19336,-1.91251 2.56787,-3.3302 l 11.03378,0 c -1.25722,4.17279 -3.4506,7.38261 -6.58015,9.62949 -3.12961,2.24688 -6.84766,3.37031 -11.15415,3.37032 -13.48128,-10e-6 -20.22191,-7.34248 -20.22191,-22.02745 z m 10.99366,-3.20982 16.53061,0 c -0.0535,-1.47115 -0.31433,-2.76845 -0.7824,-3.89192 -0.46812,-1.12341 -1.08334,-2.05961 -1.84565,-2.8086 -0.76236,-0.74893 -1.63837,-1.29727 -2.62804,-1.64504 -0.98972,-0.34769 -2.00617,-0.52156 -3.04934,-0.52159 -2.1399,3e-5 -3.99224,0.77574 -5.55701,2.32712 -1.56481,1.55145 -2.4542,3.73145 -2.66817,6.54003 z"
             style="font-size:82.17158508px;font-variant:normal;font-stretch:normal;text-align:start;line-height:125%;writing-mode:lr-tb;text-anchor:start;fill:#333333;font-family:Coolvetica Rg;-inkscape-font-specification:Coolvetica Rg"
             id="path3009" />
          <path
             d="m 176.52275,692.03744 9.95046,0 c -1e-5,2.46087 0.80245,4.3667 2.40737,5.71751 1.6049,1.35079 3.75816,2.02619 6.45978,2.0262 2.83532,-10e-6 5.24269,-0.7824 7.22211,-2.34718 1.97937,-1.5648 2.96906,-3.68462 2.96909,-6.35947 l 0,-6.6604 c -0.77574,1.81891 -2.15997,3.2299 -4.15271,4.23296 -1.99279,1.00308 -4.31323,1.50461 -6.96132,1.50461 -3.34358,0 -6.15218,-0.58847 -8.42579,-1.7654 -2.27364,-1.17694 -4.10591,-2.72167 -5.49683,-4.63419 -1.39093,-1.91252 -2.40069,-4.13265 -3.02928,-6.66039 -0.62859,-2.52773 -0.94289,-5.10228 -0.94288,-7.72365 -1e-5,-3.12956 0.46141,-5.99165 1.38423,-8.58629 0.92283,-2.59458 2.18001,-4.80802 3.77155,-6.64033 1.59153,-1.83224 3.45724,-3.2566 5.59714,-4.27308 2.13987,-1.01641 4.44024,-1.52463 6.90113,-1.52467 5.0287,4e-5 8.81362,2.01955 11.35476,6.05855 l 0,-5.01536 10.67268,0 0,40.84506 c -4e-5,3.07608 -0.52164,5.77768 -1.56479,8.10481 -1.04323,2.32712 -2.46759,4.27307 -4.27308,5.83788 -1.80557,1.56477 -3.93876,2.75508 -6.3996,3.57093 -2.46089,0.81581 -5.09562,1.22373 -7.9042,1.22375 -2.78187,-2e-5 -5.37648,-0.39456 -7.78383,-1.18363 -2.40738,-0.7891 -4.48039,-1.91254 -6.21904,-3.37032 -1.73866,-1.45781 -3.09615,-3.22321 -4.07247,-5.29621 -0.97632,-2.07302 -1.46449,-4.43358 -1.46448,-7.08169 z m 11.0739,-22.10768 c -1e-5,3.61107 0.86932,6.48654 2.60799,8.62641 1.73864,2.13989 3.91864,3.20983 6.54002,3.20983 2.62133,0 4.79465,-0.99638 6.51996,-2.98916 1.72525,-1.99275 2.58789,-4.71441 2.58793,-8.16499 -4e-5,-8.66651 -3.03599,-12.99977 -9.10789,-12.99981 -6.07194,4e-5 -9.12127,4.10594 -9.14801,12.31772 z"
             style="font-size:82.17158508px;font-variant:normal;font-stretch:normal;text-align:start;line-height:125%;writing-mode:lr-tb;text-anchor:start;fill:#333333;font-family:Coolvetica Rg;-inkscape-font-specification:Coolvetica Rg"
             id="path3011" />
          <path
             d="m 219.69493,692.03744 9.95046,0 c -1e-5,2.46087 0.80245,4.3667 2.40737,5.71751 1.6049,1.35079 3.75816,2.02619 6.45978,2.0262 2.83532,-10e-6 5.24269,-0.7824 7.22211,-2.34718 1.97937,-1.5648 2.96906,-3.68462 2.96909,-6.35947 l 0,-6.6604 c -0.77574,1.81891 -2.15997,3.2299 -4.15271,4.23296 -1.99279,1.00308 -4.31323,1.50461 -6.96132,1.50461 -3.34358,0 -6.15218,-0.58847 -8.42579,-1.7654 -2.27364,-1.17694 -4.10591,-2.72167 -5.49683,-4.63419 -1.39093,-1.91252 -2.40069,-4.13265 -3.02928,-6.66039 -0.62859,-2.52773 -0.94289,-5.10228 -0.94288,-7.72365 -1e-5,-3.12956 0.46141,-5.99165 1.38423,-8.58629 0.92283,-2.59458 2.18001,-4.80802 3.77155,-6.64033 1.59153,-1.83224 3.45724,-3.2566 5.59714,-4.27308 2.13987,-1.01641 4.44024,-1.52463 6.90113,-1.52467 5.0287,4e-5 8.81362,2.01955 11.35476,6.05855 l 0,-5.01536 10.67268,0 0,40.84506 c -4e-5,3.07608 -0.52164,5.77768 -1.56479,8.10481 -1.04323,2.32712 -2.46759,4.27307 -4.27308,5.83788 -1.80557,1.56477 -3.93876,2.75508 -6.3996,3.57093 -2.46089,0.81581 -5.09562,1.22373 -7.9042,1.22375 -2.78187,-2e-5 -5.37648,-0.39456 -7.78383,-1.18363 -2.40738,-0.7891 -4.48039,-1.91254 -6.21904,-3.37032 -1.73866,-1.45781 -3.09615,-3.22321 -4.07247,-5.29621 -0.97632,-2.07302 -1.46449,-4.43358 -1.46448,-7.08169 z m 11.0739,-22.10768 c -1e-5,3.61107 0.86932,6.48654 2.60799,8.62641 1.73864,2.13989 3.91864,3.20983 6.54002,3.20983 2.62133,0 4.79465,-0.99638 6.51996,-2.98916 1.72525,-1.99275 2.58789,-4.71441 2.58793,-8.16499 -4e-5,-8.66651 -3.03599,-12.99977 -9.10789,-12.99981 -6.07194,4e-5 -9.12127,4.10594 -9.14801,12.31772 z"
             style="font-size:82.17158508px;font-variant:normal;font-stretch:normal;text-align:start;line-height:125%;writing-mode:lr-tb;text-anchor:start;fill:#333333;font-family:Coolvetica Rg;-inkscape-font-specification:Coolvetica Rg"
             id="path3013" />
          <path
             d="m 262.78688,668.88656 c -10e-6,-3.12955 0.43466,-5.95152 1.30399,-8.46592 0.86932,-2.51433 2.13988,-4.68096 3.81167,-6.4999 1.67178,-1.81886 3.71135,-3.2031 6.11873,-4.15271 2.40736,-0.94953 5.17583,-1.42432 8.30543,-1.42436 6.23239,4e-5 10.95351,1.99949 14.16337,5.99836 3.20978,3.99894 4.8147,10.02405 4.81474,18.07534 l -27.84526,0 c 0.16048,3.0761 1.04987,5.51691 2.66817,7.32242 1.61827,1.80554 3.7381,2.7083 6.35947,2.7083 1.76538,0 3.3168,-0.40123 4.65425,-1.20369 1.3374,-0.80245 2.19336,-1.91251 2.56786,-3.3302 l 11.03379,0 c -1.25722,4.17279 -3.4506,7.38261 -6.58015,9.62949 -3.12961,2.24688 -6.84766,3.37031 -11.15415,3.37032 -13.48128,-10e-6 -20.22192,-7.34248 -20.22191,-22.02745 z m 10.99366,-3.20982 16.53061,0 c -0.0535,-1.47115 -0.31433,-2.76845 -0.7824,-3.89192 -0.46813,-1.12341 -1.08334,-2.05961 -1.84565,-2.8086 -0.76236,-0.74893 -1.63837,-1.29727 -2.62805,-1.64504 -0.98971,-0.34769 -2.00616,-0.52156 -3.04933,-0.52159 -2.1399,3e-5 -3.99224,0.77574 -5.55702,2.32712 -1.5648,1.55145 -2.45419,3.73145 -2.66816,6.54003 z"
             style="font-size:82.17158508px;font-variant:normal;font-stretch:normal;text-align:start;line-height:125%;writing-mode:lr-tb;text-anchor:start;fill:#333333;font-family:Coolvetica Rg;-inkscape-font-specification:Coolvetica Rg"
             id="path3015" />
          <path
             d="m 304.59487,689.83069 0,-40.44383 10.03071,0 0,4.85487 c 0.88269,-1.36414 1.80552,-2.4274 2.76848,-3.18977 0.96293,-0.7623 1.94594,-1.35076 2.94903,-1.76541 1.00305,-0.41456 2.02618,-0.67536 3.0694,-0.78239 1.04317,-0.10695 2.11311,-0.16045 3.20982,-0.16049 l 1.4043,0 0,10.91341 c -0.98972,-0.16046 -1.97941,-0.24071 -2.96909,-0.24074 -6.52666,3e-5 -9.78998,3.26336 -9.78997,9.78998 l 0,21.02437 z"
             style="font-size:82.17158508px;font-variant:normal;font-stretch:normal;text-align:start;line-height:125%;writing-mode:lr-tb;text-anchor:start;fill:#333333;font-family:Coolvetica Rg;-inkscape-font-specification:Coolvetica Rg"
             id="path3017" />
        </g>
        <g
           style="font-size:58.6939888px;font-style:normal;font-weight:normal;line-height:125%;letter-spacing:0px;word-spacing:0px;fill:#333333;fill-opacity:1;stroke:none;font-family:Sans"
           id="text2985-1-0-2-7-1">
          <path
             d="m -3.9995142,669.50263 c -1.2e-6,-3.18305 0.4747853,-6.08527 1.424361,-8.70665 0.9495703,-2.62133 2.33380708,-4.86152 4.1527144,-6.72058 1.8188936,-1.85899 3.9988993,-3.29672 6.5400236,-4.3132 2.5410972,-1.01641 5.4299392,-1.52463 8.6665342,-1.52467 3.183054,4e-5 6.031773,0.50826 8.546166,1.52467 2.514332,1.01648 4.660902,2.44084 6.439716,4.27308 1.778741,1.83231 3.149604,4.05912 4.112592,6.68045 0.962906,2.62139 1.44438,5.55035 1.444422,8.7869 -4.2e-5,3.2366 -0.481516,6.15888 -1.444422,8.76685 -0.962988,2.60799 -2.333851,4.84149 -4.112592,6.70051 -1.778814,1.85903 -3.938758,3.29676 -6.479839,4.31321 -2.541141,1.01644 -5.376486,1.52466 -8.506043,1.52467 -3.290092,-10e-6 -6.225744,-0.5216 -8.8069642,-1.5648 -2.5812469,-1.04319 -4.7612526,-2.4943 -6.5400236,-4.35332 -1.77878433,-1.85902 -3.1295854,-4.1059 -4.0524073,-6.74064 -0.9228271,-2.63472 -1.3842393,-5.51688 -1.3842381,-8.64648 z m 10.9936593,0 c -1.22e-5,8.21183 3.2633089,12.31773 9.7899739,12.31772 6.526621,1e-5 9.789942,-4.10589 9.789974,-12.31772 -3.2e-5,-8.15828 -3.263353,-12.23743 -9.789974,-12.23746 -6.526665,3e-5 -9.7899861,4.07918 -9.7899739,12.23746 z"
             style="font-size:82.17158508px;font-variant:normal;font-stretch:normal;text-align:start;line-height:125%;writing-mode:lr-tb;text-anchor:start;fill:#333333;font-family:Coolvetica Rg;-inkscape-font-specification:Coolvetica Rg"
             id="path3020" />
        </g>
      </g>
      <path
         id="path4105"
         d="m 571.31718,498.34215 c -0.11871,0.0263 -0.24092,0.0744 -0.34375,0.0625 -2.19073,0.24887 -4.35849,1.46812 -5.28125,3.53125 -1.54367,3.04512 -1.23598,6.57623 -1.0625,9.875 0.36911,2.6636 1.60792,5.62321 4.3125,6.625 0.8206,0.31168 1.69831,0.50604 2.5625,0.53125 0.18317,-3.96385 0.0936,-7.96244 0.125,-11.9375 l 0,-8.59375 c -0.0734,-0.10894 -0.19379,-0.12001 -0.3125,-0.0937 z"
         style="fill:#ffffff;fill-opacity:1;stroke:#ffffff;stroke-width:1.97588897;stroke-linecap:butt;stroke-linejoin:miter;stroke-miterlimit:4;stroke-opacity:1;stroke-dasharray:none;stroke-dashoffset:0"
         inkscape:connector-curvature="0" />
    </g>
  </g>
</svg>
